<svg width="512" height="512" viewBox="0 0 512 512" fill="none" xmlns="http://www.w3.org/2000/svg">
<path d="M337.775 245.647C337.779 247.856 335.992 249.65 333.783 249.655L154.072 250.004C151.862 250.008 150.068 248.221 150.064 246.012L150.008 217.361C150.003 215.152 151.791 213.357 154 213.353L223.498 213.218C225.707 213.214 227.494 211.419 227.49 209.21L227.402 164.24C227.398 162.031 229.185 160.237 231.394 160.232L254.501 160.187C256.71 160.183 258.504 161.97 258.509 164.179L258.596 209.15C258.601 211.359 260.395 213.146 262.604 213.142L301.532 213.066C303.741 213.062 305.529 211.267 305.524 209.058L305.421 156.063C305.416 153.853 307.204 152.059 309.413 152.055L333.592 152.008C335.801 152.003 337.595 153.791 337.6 156L337.775 245.647Z" fill="#1E90FF"/>
<path d="M337.817 267.291C337.813 265.081 336.018 263.294 333.809 263.298L154.098 263.648C151.889 263.652 150.102 265.446 150.106 267.656L150.162 296.307C150.166 298.516 151.961 300.303 154.17 300.299L223.668 300.164C225.877 300.159 227.671 301.947 227.675 304.156L227.763 349.126C227.768 351.335 229.562 353.122 231.771 353.118L254.877 353.073C257.087 353.069 258.874 351.275 258.87 349.065L258.782 304.095C258.778 301.886 260.565 300.092 262.774 300.088L301.702 300.012C303.911 300.008 305.705 301.795 305.71 304.004L305.813 357C305.817 359.209 307.612 360.997 309.821 360.992L334 360.945C336.209 360.941 337.996 359.147 337.992 356.937L337.817 267.291Z" fill="#1E90FF"/>
<path d="M332.908 432.568C335.669 432.639 337.925 434.866 337.931 437.627L337.99 468C337.996 470.761 335.745 473.01 332.984 472.953C215.132 470.523 120.231 374.596 120 256.423C119.77 138.249 214.295 41.9539 332.137 39.0663C334.897 38.9986 337.156 41.2385 337.162 43.9999L337.221 74.372C337.227 77.1335 334.979 79.3693 332.218 79.4512C236.734 82.2836 160.292 160.467 160.48 256.344C160.667 352.221 237.413 430.107 332.908 432.568Z" fill="#1E90FF"/>
</svg>
